<svg width="120" height="120" viewBox="0 0 120 120" fill="none" xmlns="http://www.w3.org/2000/svg">
<path d="M54.0041 100.592C66.4578 96.4832 70.8575 92.6346 71.6897 92.1281C50.9503 79.7865 28.2715 74.1293 3.55215 80.4521C23.6258 135.331 102.379 132.633 118.241 75.2361C94.4336 96.8956 75.0835 100.686 54.0041 100.592Z" fill="#333"/>
<path d="M78.7015 77.0374C78.7006 72.5718 77.1014 68.2538 74.1928 64.8645C71.2844 61.4753 67.2588 59.2383 62.8439 58.5585C58.429 57.8784 53.9165 58.8004 50.1227 61.1573C46.3286 63.5144 43.5035 67.1509 42.1584 71.4093C54.5234 73.6343 66.2786 78.4464 76.6535 85.5302C78.0007 82.902 78.7028 79.9908 78.7015 77.0374Z" fill="#333"/>
<path d="M59.9964 55.0308C61.5632 55.0351 63.0962 54.5744 64.4011 53.707C65.7059 52.8398 66.724 51.6047 67.3264 50.1586C67.9287 48.7124 68.0881 47.12 67.7845 45.5833C67.4809 44.0464 66.7279 42.6343 65.6209 41.5255C64.514 40.4168 63.1028 39.6615 61.5659 39.3552C60.0293 39.0488 58.4363 39.2053 56.9886 39.8048C55.5408 40.4042 54.3038 41.4197 53.4337 42.7226C52.5637 44.0256 52.1001 45.5573 52.1016 47.1238C52.0987 48.1617 52.3008 49.19 52.6964 50.1497C53.092 51.1093 53.6731 51.9814 54.4066 52.7162C55.1402 53.4508 56.0115 54.0334 56.9706 54.4305C57.9298 54.8278 58.958 55.0317 59.9964 55.0308Z" fill="#333"/>
<path d="M16.9542 60.044C16.5128 58.2065 14.9281 55.0307 11.3172 54.6329C6.32417 54.0902 1.91005 58.0764 0.187827 59.6173C0.145567 59.6562 0.111174 59.7028 0.08652 59.7547C0.0299897 59.8447 0 59.9486 0 60.055C0 60.1611 0.0299897 60.2652 0.08652 60.3552C0.109792 60.3975 0.141864 60.4346 0.180591 60.4637C1.77257 62.0769 6.07814 65.8314 11.1218 65.4552C14.7399 65.2093 16.4622 61.8381 16.9542 60.0152V60.044Z" fill="#333"/>
<path d="M103.046 59.9434C103.487 61.7807 105.072 64.9565 108.683 65.3545C113.676 65.897 118.126 61.911 119.812 60.3701C119.854 60.3312 119.889 60.2845 119.913 60.2327C119.97 60.1427 120 60.0386 120 59.9325C120 59.8262 119.97 59.7222 119.913 59.6323C119.89 59.5897 119.858 59.5528 119.819 59.5238C118.235 57.8816 113.929 54.156 108.885 54.5032C105.267 54.7492 103.545 58.1202 103.053 59.9434H103.046Z" fill="#333"/>
<path d="M99.753 43.4767C100.868 45.0104 103.545 47.3326 107.033 46.3198C111.852 44.873 114.435 39.5197 115.405 37.4579C115.429 37.4054 115.444 37.349 115.448 37.2916C115.465 37.1856 115.451 37.0773 115.409 36.9788C115.367 36.8803 115.298 36.7956 115.21 36.7346C115.17 36.7057 115.126 36.6837 115.079 36.6693C112.988 35.7652 107.583 33.9711 103.06 36.221C99.8183 37.827 99.5071 41.5887 99.753 43.4551V43.4767Z" fill="#333"/>
<path d="M90.4114 29.5216C92.0251 30.5128 95.39 31.6341 98.2266 29.3626C102.134 26.2157 102.467 20.2546 102.568 17.9687C102.579 17.9137 102.579 17.8572 102.568 17.8023C102.543 17.6997 102.489 17.6062 102.414 17.5322C102.339 17.4581 102.244 17.4064 102.141 17.3827C102.094 17.3721 102.044 17.3721 101.997 17.3827C99.7172 17.3393 94.0367 17.7517 90.7153 21.564C88.3345 24.284 89.4852 27.8867 90.4403 29.5216H90.4114Z" fill="#333"/>
<path d="M76.4387 20.2048C78.3056 20.5014 81.8441 20.2555 83.5952 17.0724C86.005 12.6667 84.0223 7.03132 83.248 4.88276C83.2266 4.83035 83.1973 4.78155 83.1611 4.73808C83.0977 4.65145 83.011 4.58448 82.9112 4.54481C82.8114 4.50513 82.7023 4.49439 82.5967 4.51382C82.5511 4.52063 82.5071 4.53532 82.4665 4.55722C80.3245 5.39638 75.2592 7.95729 73.6455 12.7391C72.4877 16.1681 74.9262 19.0473 76.4387 20.2048Z" fill="#333"/>
<path d="M59.9605 16.9494C61.7985 16.5081 64.9752 14.9238 65.3732 11.314C65.9158 6.32237 61.9287 1.9095 60.3873 0.187774C60.3484 0.145525 60.3019 0.111143 60.2499 0.0864953C60.1599 0.0299811 60.0559 0 59.9496 0C59.8434 0 59.7393 0.0299811 59.6493 0.0864953C59.6069 0.109761 59.5698 0.141824 59.5407 0.18054C57.8909 1.77206 54.1715 6.07641 54.5187 11.1186C54.7648 14.7357 58.137 16.4575 59.9605 16.9494Z" fill="#333"/>
<path d="M43.4897 20.2559C45.0238 19.149 47.3467 16.4652 46.3336 12.9783C44.8864 8.16034 39.5315 5.57773 37.4691 4.60834L37.3028 4.56494C37.1968 4.55019 37.089 4.56464 36.9909 4.60671C36.8927 4.64878 36.8078 4.71689 36.7454 4.80367C36.7167 4.84318 36.6947 4.88718 36.6804 4.93388C35.7758 7.00286 34.0103 12.4068 36.2317 16.9282C37.8382 20.1691 41.6011 20.4875 43.4681 20.2341L43.4897 20.2559Z" fill="#333"/>
<path d="M29.5309 29.5729C30.5224 27.9598 31.644 24.5959 29.3717 21.7672C26.2241 17.8536 20.2613 17.5281 17.9747 17.4268C17.9198 17.4157 17.8632 17.4157 17.8082 17.4268C17.7057 17.4522 17.6121 17.5055 17.538 17.5809C17.4639 17.6562 17.4122 17.7506 17.3885 17.8536C17.3779 17.9013 17.3779 17.9506 17.3885 17.9983C17.3451 20.2843 17.7576 25.9559 21.5711 29.2763C24.2919 31.6565 27.8956 30.5061 29.5309 29.5513V29.5729Z" fill="#333"/>
<path d="M20.2098 43.5429C20.5066 41.6765 20.2605 38.139 17.0766 36.3884C12.6697 33.9793 7.03263 35.9615 4.88348 36.7355C4.82923 36.7566 4.77995 36.7886 4.73874 36.8296C4.65205 36.8912 4.58482 36.9767 4.54508 37.0753C4.50533 37.174 4.49469 37.282 4.51441 37.3866C4.52227 37.4343 4.53688 37.4806 4.55784 37.524C5.39724 39.6436 7.95163 44.7582 12.742 46.3425C16.172 47.4927 19.052 45.0548 20.2098 43.5429Z" fill="#333"/>
</svg>
